<?xml version="1.0" standalone="no"?>
<!DOCTYPE svg PUBLIC "-//W3C//DTD SVG 20010904//EN"
 "http://www.w3.org/TR/2001/REC-SVG-20010904/DTD/svg10.dtd">
<svg version="1.0" xmlns="http://www.w3.org/2000/svg"
 width="820.000000pt" height="768.000000pt" viewBox="0 0 820.000000 768.000000"
 preserveAspectRatio="xMidYMid meet">

<g transform="translate(0.000000,768.000000) scale(0.100000,-0.100000)"
fill="#000000" stroke="none">
<path d="M5595 7659 c-192 -4 -521 -13 -730 -19 -209 -5 -893 -13 -1520 -17
-725 -3 -1145 -9 -1152 -16 -10 -7 -13 -66 -13 -233 l0 -224 24 -15 c21 -14
78 -17 373 -22 191 -3 356 -10 366 -15 22 -12 24 -90 1 -108 -12 -11 -205 -12
-1004 -6 -895 6 -990 5 -1004 -10 -14 -14 -16 -110 -16 -953 0 -1033 4 -966
-62 -959 -27 2 -34 8 -39 33 -4 17 -7 181 -8 366 l-1 336 -113 6 c-197 12
-393 9 -405 -6 -8 -9 -13 -167 -16 -493 -3 -263 -10 -726 -15 -1029 -15 -833
-24 -2328 -14 -2343 7 -9 79 -14 272 -19 221 -5 264 -4 272 8 5 8 7 132 4 299
-3 157 -2 335 2 395 l8 110 53 3 c36 2 54 -1 57 -10 3 -8 9 -454 13 -992 l7
-978 23 -18 c21 -18 68 -18 982 -20 557 0 971 -5 985 -10 26 -10 42 -61 31
-104 -9 -35 -46 -37 -438 -34 -185 2 -339 0 -343 -4 -11 -11 -5 -490 6 -504 7
-9 401 -13 1617 -17 884 -4 1762 -10 1952 -16 257 -7 347 -6 353 3 5 6 6 119
2 251 -5 190 -9 243 -21 255 -16 16 -237 28 -550 29 -94 1 -186 4 -203 7 -30
6 -31 7 -31 65 0 55 2 59 26 65 23 6 376 0 1514 -26 235 -6 408 -6 413 -1 5 5
9 418 8 959 -1 522 1 973 5 1001 5 42 11 52 29 57 13 3 33 1 44 -6 21 -11 21
-15 21 -391 l0 -379 25 -10 c14 -5 144 -13 289 -16 253 -7 264 -6 273 12 6 12
8 760 5 1977 l-4 1958 -264 -3 c-227 -3 -266 -5 -280 -19 -14 -14 -16 -61 -21
-355 -3 -187 -10 -349 -14 -362 -8 -20 -15 -23 -46 -20 l-38 3 -6 65 c-4 36
-7 470 -8 965 -1 494 -5 902 -9 906 -18 19 -150 20 -921 7 -454 -7 -866 -13
-916 -13 l-90 0 -3 48 c-3 43 -1 48 23 57 16 6 169 10 379 10 260 0 355 3 364
12 16 16 17 490 2 519 -9 16 -21 19 -83 17 -40 0 -229 -5 -422 -9z m465 -44
c17 -20 10 -429 -7 -446 -9 -9 -108 -14 -372 -19 -282 -4 -362 -9 -375 -19
-13 -11 -16 -29 -14 -85 l3 -71 35 1 c19 0 452 4 961 9 687 6 928 5 933 -3 4
-7 10 -449 13 -983 l6 -971 73 4 c40 2 78 8 83 13 5 6 12 165 17 362 5 261 10
358 20 370 11 16 36 18 232 21 196 3 220 1 233 -14 12 -15 14 -286 16 -1848 2
-1007 0 -1873 -3 -1923 l-6 -93 -242 0 c-175 0 -245 3 -254 12 -9 9 -12 106
-12 374 0 212 -4 373 -10 388 -9 24 -14 26 -79 26 -43 0 -73 -5 -77 -12 -4 -6
-6 -455 -5 -998 2 -884 1 -988 -13 -1000 -13 -10 -95 -10 -444 -1 -643 17
-1485 24 -1501 13 -16 -12 -19 -168 -2 -185 6 -6 150 -13 377 -18 304 -7 371
-11 390 -24 24 -15 24 -17 24 -214 0 -167 -2 -201 -15 -211 -13 -11 -79 -12
-323 -5 -169 4 -1023 11 -1899 14 -875 3 -1595 10 -1600 14 -10 11 -9 414 1
424 4 5 177 10 384 13 207 3 378 7 380 8 1 1 2 42 2 92 0 75 -3 91 -17 98 -10
5 -435 12 -968 16 -522 4 -965 9 -983 13 -18 3 -36 13 -41 22 -5 9 -12 451
-16 983 -9 1113 4 1000 -114 1006 -49 3 -70 0 -79 -10 -8 -10 -13 -131 -18
-406 l-7 -392 -24 -6 c-43 -11 -412 1 -425 14 -19 19 -4 2674 20 3537 l7 250
144 8 c79 4 178 4 220 0 l76 -8 5 -350 c3 -192 9 -356 13 -362 5 -9 34 -13 82
-13 63 0 76 3 85 19 7 13 10 329 10 954 0 828 2 936 15 947 13 10 93 12 388 6
655 -11 1607 -10 1620 3 16 16 15 144 0 163 -11 12 -73 16 -380 22 -273 5
-369 10 -375 19 -4 6 -7 104 -5 217 l2 205 1075 6 c890 5 2086 22 2295 33 28
1 141 3 251 4 167 2 204 -1 214 -13z"/>
<path d="M5515 7580 c-810 -19 -1495 -30 -2338 -36 -499 -4 -909 -10 -910 -13
-1 -3 0 -75 3 -159 4 -121 8 -155 20 -162 9 -6 167 -10 375 -10 209 0 366 -4
375 -10 12 -7 15 -34 15 -137 0 -70 -3 -137 -8 -147 -7 -18 -31 -19 -1014 -12
-836 7 -1007 6 -1014 -6 -5 -7 -9 -431 -9 -943 0 -568 -4 -936 -10 -945 -6
-11 -28 -15 -74 -16 -35 -1 -85 -5 -111 -8 -35 -6 -52 -3 -71 9 l-24 15 0 355
c0 194 -4 356 -9 359 -13 8 -328 -6 -343 -15 -9 -6 -13 -93 -15 -386 -2 -208
-7 -736 -13 -1173 -13 -1072 -15 -2099 -4 -2109 11 -9 349 1 359 11 4 3 6 169
6 367 -1 256 1 367 10 382 11 21 15 22 143 15 72 -4 135 -11 141 -17 6 -6 12
-353 15 -979 4 -774 8 -972 18 -982 17 -17 61 -18 1125 -26 773 -6 889 -9 898
-22 11 -16 8 -294 -3 -305 -3 -4 -177 -7 -385 -8 l-378 -2 -7 -155 c-5 -116
-4 -158 5 -166 9 -9 458 -15 1667 -25 910 -7 1737 -14 1837 -16 231 -5 223
-10 223 145 0 137 -7 180 -33 193 -12 7 -159 14 -385 19 -340 7 -366 8 -379
26 -10 14 -13 52 -11 154 l3 135 440 -2 c242 -1 680 -7 973 -14 359 -7 537 -8
544 -1 7 7 11 352 12 1004 l1 993 126 3 c96 2 129 -1 137 -11 8 -9 12 -128 14
-375 2 -224 7 -365 13 -371 6 -5 92 -12 191 -16 172 -7 182 -6 187 11 3 11 7
847 9 1860 2 1549 1 1844 -11 1857 -11 15 -37 17 -175 17 -115 0 -167 -4 -178
-12 -13 -11 -16 -61 -22 -363 -5 -315 -7 -351 -23 -362 -11 -9 -56 -13 -135
-13 -106 0 -118 2 -128 19 -6 13 -10 198 -10 533 0 282 -3 712 -7 955 l-6 441
-36 4 c-34 5 -665 -3 -1471 -17 -253 -4 -380 -3 -390 4 -20 14 -22 267 -2 280
7 4 176 11 375 15 322 6 363 8 375 23 8 12 12 61 12 159 0 176 -3 181 -105
187 -38 3 -218 1 -400 -3z m453 -42 c18 -18 16 -248 -2 -273 -15 -21 -6 -21
-548 -27 -108 -2 -200 -6 -204 -10 -10 -11 -5 -331 6 -342 6 -6 363 -4 950 4
517 7 944 10 948 6 4 -4 9 -438 12 -964 3 -526 9 -963 13 -969 6 -10 52 -13
172 -13 152 0 165 1 175 19 6 12 10 139 11 338 0 175 3 336 7 358 l7 40 135 3
c75 1 142 -2 150 -8 13 -8 15 -221 12 -1837 -3 -1694 -5 -1829 -20 -1841 -13
-11 -46 -13 -152 -7 -73 3 -138 9 -142 11 -4 3 -8 171 -8 373 0 272 -3 370
-12 379 -8 8 -61 12 -175 12 -145 0 -163 -2 -171 -17 -4 -10 -5 -398 0 -863 4
-465 4 -906 0 -980 l-7 -135 -480 5 c-264 3 -703 5 -975 5 l-495 0 -3 -177
c-2 -161 -1 -178 15 -186 10 -6 182 -13 382 -17 442 -9 407 4 397 -154 -3 -63
-11 -110 -19 -118 -9 -9 -113 -10 -467 -3 -250 5 -1059 12 -1797 16 -738 4
-1347 10 -1355 15 -10 6 -13 38 -13 123 0 63 4 119 9 123 4 4 168 8 364 8 197
0 367 4 380 8 22 8 22 11 22 167 0 87 -4 170 -9 183 -9 24 -15 25 -113 31 -57
4 -507 10 -1001 14 -782 6 -899 9 -907 22 -9 13 -14 684 -15 1690 0 146 -4
271 -8 278 -10 15 -333 17 -357 2 -13 -8 -16 -65 -20 -382 l-5 -373 -113 -7
c-62 -3 -125 -3 -140 1 -26 7 -27 10 -32 92 -7 110 6 2195 18 2921 7 444 12
571 23 584 11 13 32 15 130 12 65 -2 121 -7 126 -11 4 -5 10 -167 13 -360 3
-194 7 -353 8 -355 1 -1 80 -1 174 0 l173 3 7 40 c4 22 7 447 7 946 1 658 4
908 12 916 9 9 274 10 1008 6 910 -6 997 -5 1009 10 19 23 13 317 -7 340 -12
15 -51 17 -376 17 -325 0 -364 2 -376 17 -10 11 -15 52 -17 125 -3 91 -1 112
13 128 16 18 58 18 1028 19 850 1 1322 7 1897 24 290 9 717 6 728 -5z"/>
<path d="M5339 7496 c-2 -3 -657 -10 -1454 -16 -798 -6 -1465 -12 -1483 -13
-19 -2 -38 -10 -43 -18 -11 -15 -4 -129 9 -140 4 -4 175 -11 379 -15 300 -5
375 -9 384 -21 18 -21 6 -437 -12 -460 -13 -15 -86 -16 -934 -10 -506 4 -948
3 -983 -2 -34 -4 -68 -13 -75 -20 -9 -9 -13 -223 -17 -936 -4 -740 -8 -927
-18 -937 -14 -14 -325 -21 -412 -9 l-45 6 -7 349 c-5 254 -11 352 -20 363 -15
18 -141 14 -160 -5 -10 -10 -15 -224 -24 -935 -20 -1535 -27 -2512 -19 -2535
6 -22 11 -23 103 -20 l97 3 5 370 c3 204 9 376 13 383 11 16 428 17 459 1 20
-11 20 -12 17 -981 -4 -941 -3 -970 15 -983 10 -8 37 -17 60 -19 22 -3 464 -7
982 -8 780 -3 944 -5 957 -17 15 -12 17 -41 17 -232 0 -184 -2 -220 -16 -233
-13 -14 -61 -16 -374 -16 -345 0 -360 -1 -370 -19 -14 -27 -13 -124 2 -139 9
-9 241 -12 983 -12 533 0 1242 -5 1575 -11 949 -16 945 -16 963 0 22 17 23
109 3 137 -14 18 -33 19 -391 24 -319 4 -377 7 -385 20 -5 8 -10 115 -10 237
0 194 2 224 17 238 15 16 53 17 462 10 245 -3 615 -10 821 -15 206 -6 443 -10
526 -10 l151 0 -1 998 -1 997 214 3 c143 1 218 -1 225 -8 7 -7 13 -140 16
-388 l5 -377 97 -3 c112 -3 107 -8 107 103 0 39 -1 827 -2 1752 -2 1343 -5
1685 -15 1695 -18 18 -145 24 -159 6 -8 -9 -13 -122 -15 -365 -2 -248 -6 -355
-14 -364 -12 -11 -446 -20 -458 -8 -3 3 -10 439 -15 968 -6 662 -12 966 -20
974 -7 7 -280 7 -952 -2 -518 -7 -945 -9 -949 -4 -7 6 -15 367 -11 431 2 26
56 31 376 33 336 2 401 7 416 30 14 23 11 133 -5 155 -14 18 -31 19 -298 22
-156 2 -286 1 -289 -2z m535 -36 c24 -9 26 -15 26 -64 0 -33 -5 -58 -12 -63
-7 -4 -183 -10 -391 -13 -321 -4 -379 -7 -387 -20 -12 -19 -13 -480 -1 -498 6
-11 81 -13 372 -12 200 1 380 3 399 5 107 9 1131 8 1140 -1 6 -6 12 -345 17
-974 l8 -965 270 0 270 0 8 365 c4 201 9 371 12 378 2 7 22 12 45 12 35 0 42
-4 51 -27 15 -39 0 -3465 -15 -3475 -22 -15 -94 -9 -100 8 -3 9 -6 178 -6 377
0 211 -4 368 -10 377 -8 13 -47 15 -252 15 -134 0 -252 -4 -262 -8 -19 -7 -19
-29 -13 -990 4 -540 3 -987 -1 -994 -6 -9 -92 -10 -375 -3 -202 5 -638 12
-970 16 -514 6 -605 5 -613 -7 -5 -8 -10 -130 -12 -271 l-3 -257 28 -15 c23
-11 102 -16 392 -22 l363 -7 8 -22 c13 -35 2 -62 -28 -68 -15 -3 -241 -1 -502
3 -261 5 -1020 9 -1687 10 -1088 0 -1213 2 -1227 16 -23 23 -20 71 4 84 15 8
124 9 368 4 305 -6 349 -5 360 8 14 18 23 514 9 536 -6 9 -130 12 -560 13
-862 1 -1424 12 -1439 27 -10 10 -14 216 -18 1000 l-5 987 -260 6 c-143 3
-265 4 -272 1 -6 -2 -15 -11 -19 -20 -5 -9 -10 -172 -11 -362 -2 -190 -6 -355
-8 -368 -5 -19 -12 -22 -53 -22 -26 0 -53 5 -60 12 -15 15 -16 534 -1 1703 18
1459 23 1693 36 1706 16 16 70 16 86 0 9 -9 12 -101 13 -357 1 -251 5 -349 13
-357 18 -18 531 -23 542 -5 5 7 9 256 10 553 1 297 4 719 8 938 5 338 8 399
21 407 9 6 399 10 1003 10 l987 0 0 256 c0 157 -4 263 -10 275 -10 18 -24 19
-233 20 -122 1 -292 4 -377 8 l-155 6 -3 43 c-2 24 2 50 9 58 10 12 174 14
1123 15 611 1 1280 5 1486 8 615 11 837 12 864 1z"/>
<path d="M3740 6775 c-161 -21 -397 -72 -512 -111 -54 -19 -103 -34 -109 -34
-18 0 -242 -91 -354 -144 -338 -160 -717 -457 -978 -766 -278 -328 -508 -804
-607 -1255 -73 -331 -81 -792 -20 -1137 48 -272 188 -661 320 -889 279 -480
631 -846 1068 -1109 359 -215 721 -347 1137 -412 121 -19 180 -22 435 -23 334
0 478 16 724 80 553 144 979 382 1359 761 146 145 215 226 328 385 250 354
423 770 494 1194 35 210 49 413 42 620 -25 752 -294 1396 -808 1939 -341 360
-846 662 -1345 805 -108 31 -294 71 -429 91 -119 19 -613 21 -745 5z m785 -49
c185 -29 328 -61 470 -106 459 -147 862 -396 1221 -754 209 -209 321 -359 474
-634 243 -436 373 -1012 341 -1510 -25 -394 -86 -675 -217 -996 -77 -188 -89
-213 -187 -377 -149 -252 -313 -459 -509 -640 -414 -384 -871 -616 -1433 -728
-233 -46 -326 -54 -618 -48 -398 7 -661 56 -1011 188 -179 68 -306 130 -475
233 -473 286 -858 701 -1114 1198 -300 583 -390 1282 -246 1913 91 397 219
689 460 1045 373 551 996 983 1658 1150 311 78 495 100 801 95 177 -3 259 -9
385 -29z"/>
<path d="M3798 6649 c-269 -24 -663 -135 -934 -263 -397 -189 -762 -475 -1006
-788 -285 -365 -453 -729 -558 -1208 -54 -248 -66 -616 -30 -902 37 -290 132
-603 263 -865 88 -177 132 -250 242 -403 453 -631 1150 -1056 1920 -1171 126
-19 194 -23 420 -23 281 -1 332 3 580 51 649 123 1268 506 1661 1028 243 322
378 601 488 1002 67 248 90 438 89 753 -1 319 -33 541 -120 828 -187 617 -601
1163 -1142 1506 -403 255 -807 400 -1261 452 -133 15 -462 17 -612 3z m705
-45 c195 -29 278 -48 457 -105 382 -123 729 -321 1039 -594 729 -643 1054
-1658 845 -2640 -94 -442 -285 -850 -560 -1195 -102 -129 -336 -354 -476 -460
-370 -279 -820 -466 -1292 -536 -168 -25 -504 -30 -686 -10 -377 42 -761 160
-1065 327 -526 290 -918 694 -1185 1219 -146 288 -228 552 -276 885 -24 164
-24 533 -1 700 65 471 222 870 496 1265 91 131 144 194 295 349 163 166 302
276 502 397 366 221 695 340 1099 398 61 9 121 17 135 20 14 2 132 4 263 5
208 1 259 -2 410 -25z"/>
<path d="M3849 6560 c-458 -41 -913 -199 -1279 -444 -423 -283 -723 -619 -944
-1055 -74 -146 -164 -387 -206 -553 -68 -263 -96 -623 -71 -895 23 -240 88
-522 168 -727 36 -92 139 -305 190 -393 158 -275 407 -559 688 -782 622 -497
1444 -699 2236 -550 551 103 1006 338 1397 723 410 403 657 869 766 1445 72
376 56 845 -38 1206 -50 188 -169 505 -207 551 -5 7 -35 59 -67 118 -106 196
-219 343 -417 542 -239 239 -447 391 -730 531 -450 224 -990 327 -1486 283z
m626 -45 c605 -95 1152 -368 1560 -779 408 -410 648 -885 744 -1471 34 -205
38 -531 11 -745 -66 -517 -281 -1023 -595 -1405 -101 -122 -301 -318 -415
-407 -270 -209 -583 -366 -923 -462 -268 -75 -441 -98 -742 -98 -332 0 -562
38 -878 143 -652 217 -1189 662 -1526 1265 -190 340 -303 723 -331 1119 -37
519 99 1086 365 1525 141 232 246 368 439 567 315 326 819 597 1316 707 127
28 286 54 370 60 119 8 507 -4 605 -19z"/>
<path d="M3805 6439 c-487 -57 -948 -242 -1324 -529 -379 -290 -664 -665 -839
-1105 -81 -204 -123 -362 -158 -595 -21 -142 -24 -562 -5 -685 77 -488 229
-860 497 -1218 128 -171 387 -430 555 -554 346 -257 808 -445 1224 -498 133
-17 513 -22 660 -9 349 30 816 192 1120 389 223 144 458 355 617 555 233 292
404 641 492 1005 61 249 71 339 70 640 0 215 -4 308 -18 400 -41 280 -121 534
-247 786 -251 503 -648 897 -1154 1145 -312 152 -593 236 -905 269 -144 16
-469 18 -585 4z m735 -55 c178 -32 477 -119 508 -148 17 -17 7 -39 -27 -59
-24 -14 -55 -17 -170 -17 -161 0 -193 -9 -253 -68 -42 -40 -49 -37 -67 20 -25
76 -61 111 -160 152 -98 40 -177 89 -195 119 -9 14 -7 21 6 31 14 10 42 10
145 -1 70 -7 166 -20 213 -29z m-452 19 c-5 -27 -119 -98 -194 -121 -79 -24
-131 -63 -159 -118 -34 -68 -34 -68 -81 -29 -78 64 -118 75 -279 75 -126 0
-146 2 -166 19 -18 15 -21 22 -13 31 32 32 378 118 564 139 52 6 109 13 125
15 17 1 70 4 118 5 78 1 88 -1 85 -16z m102 -93 c25 -17 85 -47 134 -67 133
-56 176 -107 176 -215 0 -47 -16 -52 -106 -38 -57 10 -386 13 -599 7 -47 -2
-50 0 -53 24 -5 44 34 141 69 171 18 15 73 43 123 63 50 20 107 47 126 60 47
32 76 31 130 -5z m-1072 -124 c3 -35 -2 -43 -81 -124 -94 -96 -115 -131 -132
-212 -9 -46 -15 -54 -31 -52 -10 2 -55 6 -99 8 -76 5 -87 3 -232 -45 -83 -28
-162 -51 -176 -51 -30 0 -42 14 -30 34 28 47 342 276 496 360 90 50 259 126
272 122 6 -1 11 -19 13 -40z m2165 -45 c209 -100 617 -394 617 -445 0 -38 -91
-34 -203 10 -122 47 -158 51 -231 25 -32 -11 -63 -18 -67 -15 -5 3 -9 22 -9
43 0 66 -54 157 -151 252 -84 84 -118 140 -105 174 6 17 46 5 149 -44z m-1741
18 c56 -14 156 -138 141 -175 -2 -6 -48 -22 -101 -34 -144 -33 -311 -93 -460
-165 -132 -64 -133 -64 -152 -45 -15 15 -20 34 -20 79 0 82 26 134 105 211 37
36 79 83 95 105 l28 40 163 -3 c90 -2 181 -8 201 -13z m1562 -53 c14 -24 67
-87 117 -140 95 -102 119 -142 119 -201 0 -44 -25 -95 -46 -95 -9 0 -42 16
-73 35 -153 92 -344 172 -568 235 -63 18 -73 24 -73 43 0 31 77 113 119 126
19 6 91 11 160 11 85 1 136 5 156 15 49 22 61 18 89 -29z m-1034 -145 c0 -29
-89 -67 -200 -86 -267 -46 -353 -88 -455 -221 -19 -25 -23 -25 -60 -15 -22 6
-75 11 -118 11 -89 0 -131 -17 -281 -115 -150 -98 -296 -153 -296 -112 0 18
129 124 247 203 195 131 502 260 733 309 97 21 276 42 363 44 60 1 67 -1 67
-18z m270 4 c416 -47 830 -221 1138 -479 103 -87 116 -112 51 -102 -54 9 -107
36 -204 106 -101 73 -150 98 -222 115 -78 19 -117 18 -190 -4 -68 -21 -75 -18
-87 34 -5 17 -34 56 -69 91 -58 57 -67 62 -137 78 -188 42 -290 71 -356 101
-73 33 -90 47 -79 65 8 12 -6 13 155 -5z m-191 -44 c60 -43 248 -106 405 -135
121 -24 199 -79 226 -162 10 -29 10 -39 -1 -50 -12 -11 -31 -8 -122 21 -257
82 -525 105 -798 71 -116 -15 -274 -49 -342 -75 -75 -29 -88 5 -34 85 27 41
46 56 117 91 58 28 114 47 175 58 148 26 254 57 298 86 51 34 44 33 76 10z
m-1291 -165 c87 -44 89 -62 11 -116 -131 -91 -183 -134 -298 -245 -68 -66
-150 -155 -183 -198 -33 -43 -66 -81 -74 -84 -40 -15 -87 93 -87 197 0 41 13
87 47 177 25 67 46 133 46 146 0 33 18 47 62 47 21 0 93 20 161 44 67 24 129
46 137 49 42 15 132 6 178 -17z m2830 -91 c61 -23 108 -35 142 -35 45 0 52 -3
60 -26 6 -14 10 -35 10 -47 0 -12 7 -35 16 -52 30 -57 72 -170 83 -227 10 -47
10 -61 -3 -85 -22 -43 -73 -93 -93 -93 -11 0 -43 32 -78 77 -76 98 -234 257
-349 354 -49 41 -91 79 -93 86 -11 32 120 96 178 88 20 -3 77 -21 127 -40z
m-3408 -27 c0 -17 -22 -89 -50 -160 -54 -138 -58 -169 -35 -263 21 -89 23 -85
-50 -85 -88 0 -117 -14 -221 -107 -109 -97 -146 -123 -174 -123 -19 0 -21 4
-15 28 11 44 140 269 218 378 131 183 287 364 313 364 9 0 14 -11 14 -32z
m1809 8 c9 -10 -1 -28 -45 -82 -31 -38 -90 -112 -130 -165 -40 -53 -80 -99
-89 -103 -29 -11 -775 -7 -775 4 0 17 147 108 283 175 198 98 364 145 596 170
69 7 131 13 137 14 6 0 17 -5 23 -13z m367 -32 c172 -33 288 -74 459 -159 150
-74 227 -126 212 -142 -5 -4 -157 -9 -339 -11 -258 -2 -333 0 -346 10 -15 13
-196 253 -223 296 -29 47 21 49 237 6z m1629 -97 c119 -142 250 -340 328 -498
79 -158 82 -173 45 -177 -36 -4 -81 28 -162 115 -83 89 -163 133 -242 133 -29
0 -55 4 -58 9 -3 4 8 26 24 47 46 61 39 124 -38 315 -39 96 -48 145 -32 164
19 23 39 6 135 -108z m-2732 77 c47 -25 34 -46 -50 -88 -348 -170 -624 -426
-815 -752 -33 -57 -67 -104 -75 -104 -20 0 -43 62 -43 118 0 64 19 117 68 189
66 98 172 311 172 346 0 48 11 57 81 67 75 11 177 59 293 138 45 30 108 68
141 84 55 26 66 28 130 22 39 -3 82 -13 98 -20z m917 -123 c55 -74 100 -142
100 -152 0 -18 -11 -19 -147 -21 -178 -4 -314 -1 -321 6 -7 7 19 46 101 151
98 125 138 166 153 157 8 -4 59 -68 114 -141z m831 103 c62 -18 117 -48 209
-114 86 -62 120 -79 210 -105 l74 -21 16 -70 c16 -69 90 -222 151 -310 62 -90
99 -177 98 -229 0 -58 -28 -139 -49 -143 -10 -1 -31 28 -60 85 -85 166 -202
330 -331 464 -107 112 -314 263 -470 345 -38 20 -69 43 -69 50 0 15 29 32 85
50 54 17 72 17 136 -2z m-2531 -267 c0 -28 -73 -180 -129 -269 -104 -165 -127
-257 -92 -368 11 -35 17 -67 13 -71 -4 -3 -28 -14 -54 -23 -102 -38 -185 -178
-242 -412 -39 -155 -69 -226 -99 -232 -14 -3 -17 5 -17 53 0 77 26 249 55 365
85 335 217 588 461 885 80 97 104 113 104 72z m3149 -57 c105 -109 244 -325
324 -502 115 -255 164 -447 187 -723 10 -121 6 -143 -24 -132 -27 11 -54 81
-96 248 -61 245 -97 313 -195 368 -30 17 -55 35 -55 39 0 4 9 36 20 70 38 120
21 182 -96 369 -103 163 -162 313 -123 313 5 0 32 -22 58 -50z m-570 11 c12
-8 12 -15 4 -33 -23 -51 -294 -453 -305 -453 -7 0 -72 81 -145 180 -225 304
-223 301 -175 308 56 8 608 6 621 -2z m-1372 -17 c2 -6 -60 -91 -139 -189 -79
-97 -164 -206 -191 -241 -26 -35 -53 -64 -61 -64 -16 0 -336 461 -336 483 0
23 26 24 394 23 234 -1 330 -4 333 -12z m306 2 c3 -8 -8 -36 -24 -62 -17 -26
-76 -131 -131 -233 -55 -102 -104 -191 -109 -197 -12 -15 -237 -28 -313 -19
-40 5 -56 11 -54 21 4 18 368 473 393 490 28 20 231 20 238 0z m340 8 c23 -8
325 -407 350 -462 18 -39 0 -45 -180 -49 -131 -4 -172 -2 -185 9 -17 13 -258
467 -258 486 0 6 6 13 13 15 17 7 242 8 260 1z m985 -159 c146 -151 289 -370
362 -553 24 -59 44 -125 44 -147 l1 -40 -303 -3 c-251 -2 -303 0 -308 12 -3 7
31 81 75 162 93 174 101 198 73 213 -13 7 -99 11 -231 11 -164 0 -211 3 -211
13 0 15 50 95 189 299 141 208 124 194 178 156 24 -18 83 -73 131 -123z
m-2365 63 c89 -120 267 -387 267 -402 0 -23 -24 -26 -216 -26 -150 0 -186 -3
-190 -14 -3 -8 26 -81 65 -163 39 -82 71 -158 71 -169 0 -20 -7 -21 -187 -27
-300 -11 -457 -9 -477 6 -16 12 -15 18 14 97 36 99 133 287 195 380 115 172
328 390 381 390 16 0 37 -20 77 -72z m1124 -40 c98 -175 182 -353 171 -365
-14 -17 -468 -19 -468 -2 0 11 188 371 218 417 8 12 20 22 26 22 7 0 31 -33
53 -72z m-1937 -41 c37 -19 35 -38 -11 -113 -84 -137 -181 -364 -246 -578 -10
-33 -23 -61 -29 -63 -7 -2 -39 21 -72 52 -86 79 -98 117 -104 317 l-5 156 40
22 c22 13 80 61 128 107 49 46 104 90 122 98 40 18 144 19 177 2z m3925 -50
c22 -11 78 -57 125 -102 47 -45 102 -92 123 -104 39 -24 43 -36 27 -90 -5 -18
-14 -90 -21 -160 -12 -136 -25 -181 -66 -223 -35 -37 -90 -55 -108 -37 -7 8
-27 65 -45 128 -41 149 -128 362 -190 471 -28 48 -50 94 -50 102 0 49 120 57
205 15z m-4428 -238 c8 -15 13 -72 13 -160 0 -152 8 -185 66 -256 19 -23 34
-46 34 -51 0 -5 -14 -15 -31 -23 -18 -7 -53 -29 -79 -50 -39 -30 -54 -52 -80
-116 -49 -118 -75 -165 -109 -197 -27 -26 -31 -27 -37 -12 -19 49 21 357 71
557 30 117 93 308 108 327 14 17 29 10 44 -19z m4844 -151 c62 -201 104 -435
116 -634 7 -123 2 -134 -45 -110 -37 19 -55 46 -98 153 -51 127 -77 166 -134
203 -27 18 -50 35 -50 39 0 4 13 28 29 54 39 60 48 97 61 245 10 116 17 147
43 181 18 22 44 -21 78 -131z m-2208 63 c18 -7 45 -51 105 -167 45 -87 82
-164 82 -171 0 -8 -13 -13 -32 -14 -52 -2 -141 2 -149 6 -6 4 -140 236 -174
302 -22 41 -5 53 76 53 37 0 79 -4 92 -9z m402 -1 c25 -10 26 -10 9 -42 -9
-18 -53 -86 -96 -151 -64 -93 -83 -115 -94 -107 -7 7 -43 72 -79 146 -53 109
-64 138 -54 150 9 11 42 14 150 14 76 0 149 -4 164 -10z m552 -5 c6 -18 -161
-310 -177 -310 -8 0 -52 50 -98 110 -99 130 -136 191 -127 205 9 14 397 9 402
-5z m-1987 -11 c9 -9 -3 -29 -47 -80 -32 -38 -84 -102 -116 -141 -32 -40 -61
-73 -66 -73 -8 0 -141 269 -141 287 0 6 6 14 13 17 24 11 346 1 357 -10z m440
-6 c-1 -26 -131 -260 -148 -266 -6 -2 -45 45 -87 105 -87 123 -108 159 -100
173 4 6 75 10 171 10 163 0 164 0 164 -22z m305 12 c8 -13 -42 -106 -130 -240
l-64 -100 -101 0 c-85 0 -102 3 -107 17 -6 15 82 196 144 296 l23 37 115 0
c67 0 116 -4 120 -10z m920 -192 c43 -61 79 -121 79 -132 1 -18 -6 -21 -54
-24 -96 -6 -380 9 -380 20 0 11 170 268 199 301 15 18 17 18 47 -17 17 -19 66
-86 109 -148z m-768 29 c40 -71 75 -138 76 -150 2 -22 0 -22 -175 -25 -213 -3
-208 -8 -120 126 31 48 70 109 87 135 16 26 36 46 43 45 8 -2 48 -61 89 -131z
m-795 67 c88 -115 150 -214 145 -229 -6 -13 -35 -15 -204 -15 -109 0 -204 4
-212 9 -17 11 -16 12 78 131 95 121 133 161 146 157 5 -2 27 -26 47 -53z
m-1062 -68 c0 -8 -11 -50 -24 -93 -82 -267 -95 -346 -96 -590 0 -195 29 -398
76 -532 33 -93 24 -108 -44 -70 -90 49 -134 132 -193 359 -24 94 -67 197 -99
237 -25 33 -25 34 6 69 49 56 99 178 124 305 21 107 121 282 179 314 34 19 71
19 71 1z m3552 -66 c80 -53 113 -123 157 -340 22 -110 52 -193 86 -245 14 -20
25 -38 25 -40 0 -3 -15 -25 -34 -49 -40 -52 -66 -127 -100 -283 -34 -151 -78
-257 -131 -310 -41 -41 -85 -57 -99 -34 -3 5 5 44 19 87 35 109 72 281 86 394
24 197 -8 546 -67 739 -36 119 -24 135 58 81z m-2974 -147 c49 -3 82 -10 82
-17 0 -19 -289 -376 -304 -376 -21 0 -63 47 -175 195 -121 160 -134 181 -126
195 7 11 386 14 523 3z m619 -18 c3 -28 -198 -390 -217 -390 -9 0 -52 73 -113
195 -88 175 -96 196 -81 207 12 8 72 11 213 10 188 -2 196 -3 198 -22z m262
16 c19 -12 8 -48 -27 -90 -18 -22 -33 -32 -41 -26 -14 8 -71 94 -71 106 0 17
115 25 139 10z m235 -11 c13 -13 -32 -107 -58 -126 -27 -18 -159 -19 -174 -1
-15 17 58 129 90 139 29 9 130 0 142 -12z m296 -12 c31 -32 62 -97 56 -114 -4
-11 -28 -14 -100 -14 -94 0 -94 0 -121 32 -15 18 -35 47 -43 66 -22 45 -9 52
100 52 78 0 90 -2 108 -22z m159 13 c17 -11 8 -39 -26 -75 l-27 -29 -23 29
c-47 59 -39 84 27 84 19 0 41 -4 49 -9z m549 3 c12 -4 22 -13 22 -20 0 -24
-213 -414 -225 -414 -17 0 -228 408 -221 426 4 11 41 14 203 14 109 0 208 -3
221 -6z m710 -14 c3 -18 -271 -374 -292 -378 -8 -2 -40 33 -77 85 -35 48 -96
131 -136 184 -40 52 -73 98 -73 102 0 21 68 26 310 24 226 -2 265 -4 268 -17z
m-3381 -32 c17 -18 61 -76 98 -128 38 -52 92 -124 120 -160 77 -97 79 -102 52
-141 -13 -19 -70 -93 -128 -165 -57 -72 -122 -154 -144 -183 -22 -29 -47 -50
-55 -49 -48 10 -75 502 -37 693 37 183 41 189 94 133z m1277 -12 c20 -23 36
-50 36 -58 0 -26 -115 -39 -137 -17 -9 9 -7 22 9 53 24 48 37 66 49 66 4 0 24
-20 43 -44z m951 -6 c31 -61 31 -76 3 -84 -53 -14 -118 -4 -118 18 0 16 69
116 80 116 5 0 21 -22 35 -50z m-1419 -169 c66 -129 104 -215 104 -235 0 -37
-200 -420 -222 -424 -8 -1 -37 30 -68 75 -30 43 -95 131 -144 197 -127 165
-127 165 -114 190 6 12 45 64 87 116 42 52 109 139 150 193 44 57 81 97 89 95
8 -2 61 -95 118 -207z m2652 192 c14 -28 30 -134 43 -288 12 -147 3 -322 -25
-468 -16 -85 -31 -102 -57 -67 -177 236 -299 409 -299 425 0 23 5 30 140 206
101 132 167 209 181 209 5 0 12 -8 17 -17z m-3928 -8 c9 -11 8 -47 -6 -167
-18 -165 -16 -398 6 -552 10 -65 9 -81 -3 -93 -12 -12 -20 -12 -57 1 -59 20
-130 71 -161 114 -15 21 -45 83 -68 140 -22 57 -50 115 -61 129 -27 35 -26 48
16 104 20 27 52 89 70 137 38 95 81 149 148 182 48 23 99 26 116 5z m3342
-128 c144 -198 178 -248 178 -266 0 -9 -23 -44 -51 -76 -28 -33 -102 -129
-165 -213 -80 -107 -120 -152 -132 -150 -21 4 -201 351 -201 388 -1 25 39 104
158 315 71 125 88 148 106 137 7 -4 55 -64 107 -135z m-1142 94 c19 -37 12
-51 -23 -51 -44 0 -49 7 -31 41 17 34 39 37 54 10z m2248 0 c64 -33 107 -97
147 -220 10 -32 34 -72 56 -96 22 -23 39 -46 39 -51 0 -5 -15 -28 -34 -51 -35
-44 -67 -116 -86 -193 -9 -33 -26 -59 -65 -97 -47 -46 -59 -52 -110 -58 -36
-5 -60 -4 -67 3 -8 8 -7 53 2 155 12 138 10 371 -6 555 l-7 72 47 0 c26 0 63
-8 84 -19z m-2653 -101 c9 -14 -67 -134 -86 -138 -19 -3 -75 109 -66 132 5 13
22 16 76 16 38 0 73 -5 76 -10z m242 -7 c8 -21 -37 -107 -59 -111 -20 -4 -94
100 -83 117 3 6 35 11 71 11 51 0 66 -3 71 -17z m221 -4 c29 -30 85 -146 77
-158 -7 -12 -118 -13 -245 -2 -68 5 -75 8 -72 26 5 32 41 101 67 129 21 23 32
26 89 26 53 0 69 -4 84 -21z m212 11 c13 -8 13 -14 -4 -44 -10 -19 -31 -50
-47 -68 -28 -32 -29 -33 -45 -13 -27 34 -65 115 -59 125 8 13 135 13 155 0z
m269 1 c11 -7 7 -21 -20 -72 -19 -35 -41 -65 -49 -67 -10 -2 -28 20 -50 63
-30 56 -33 67 -20 75 19 12 120 13 139 1z m-835 -90 c51 -84 52 -83 -49 -83
-99 -1 -103 5 -55 90 40 69 59 68 104 -7z m684 -3 c47 -79 41 -88 -57 -88 -44
0 -82 4 -85 9 -9 14 77 142 94 139 8 -2 29 -29 48 -60z m-971 19 c10 -13 29
-46 42 -74 l24 -52 -28 -48 c-65 -111 -116 -183 -129 -183 -15 0 -76 108 -76
134 0 35 116 246 135 246 8 0 22 -10 32 -23z m1236 -117 c56 -109 57 -111 42
-146 -17 -40 -53 -94 -63 -94 -8 0 -102 155 -122 201 -11 24 -8 34 20 88 20
38 39 61 50 61 11 0 35 -36 73 -110z m-940 -23 c16 -11 16 -16 -9 -65 -17 -34
-32 -52 -44 -52 -15 0 -100 96 -100 113 0 18 129 22 153 4z m380 3 c51 0 49
-18 -12 -110 -62 -95 -85 -117 -105 -101 -20 17 -136 187 -136 199 0 19 24 22
120 17 52 -3 112 -5 133 -5z m307 -12 c0 -18 -100 -119 -111 -112 -16 9 -60
104 -54 114 10 15 165 13 165 -2z m-533 -107 c31 -47 56 -92 57 -101 1 -12
-15 -16 -82 -18 -80 -3 -84 -2 -112 27 -17 16 -30 40 -30 54 0 28 44 116 67
134 22 17 34 7 100 -96z m-310 -13 c52 -101 48 -108 -66 -108 -107 0 -111 5
-71 76 47 83 70 114 83 114 7 0 31 -37 54 -82z m673 35 c36 -57 38 -82 5 -117
-22 -23 -31 -26 -95 -26 -61 0 -70 2 -70 18 0 26 98 172 116 172 8 0 28 -21
44 -47z m308 -47 c33 -59 41 -81 33 -89 -14 -14 -175 -17 -187 -4 -14 14 76
179 94 175 9 -2 36 -38 60 -82z m-3119 41 c12 -13 42 -73 67 -133 58 -142 80
-173 159 -230 l66 -47 -35 -36 c-19 -20 -45 -58 -57 -85 -19 -43 -21 -59 -14
-137 10 -128 -27 -241 -66 -202 -14 14 -66 172 -99 298 -41 160 -89 540 -74
580 9 22 27 18 53 -8z m3993 -44 c23 -32 85 -116 138 -188 105 -140 123 -169
113 -179 -11 -11 -631 -7 -638 4 -4 6 25 50 63 98 38 48 108 140 157 205 56
75 94 117 106 117 11 0 36 -24 61 -57z m-2795 25 c12 -13 76 -95 143 -183 78
-103 120 -167 118 -180 -3 -19 -11 -20 -302 -20 -191 0 -301 4 -303 10 -4 14
300 395 315 395 5 0 18 -10 29 -22z m3940 5 c9 -23 -15 -276 -38 -408 -26
-142 -52 -245 -95 -375 -40 -122 -47 -135 -67 -127 -21 8 -26 49 -20 172 7
142 -8 202 -72 273 -56 62 -57 83 -8 101 20 8 58 34 84 58 48 45 59 67 93 184
17 58 76 139 102 139 8 0 18 -8 21 -17z m-4705 -10 c23 -26 44 -81 92 -244 24
-80 55 -168 69 -195 34 -66 96 -129 143 -144 22 -7 43 -16 47 -20 5 -4 -4 -31
-18 -59 -24 -45 -27 -60 -23 -124 3 -66 8 -80 58 -167 30 -52 76 -128 103
-168 90 -135 132 -256 96 -278 -16 -10 -72 48 -173 183 -247 328 -390 700
-426 1107 -11 129 -5 150 32 109z m2528 2 c0 -21 -32 -76 -42 -73 -20 7 -19
23 2 51 19 24 40 36 40 22z m-750 -30 c0 -8 -4 -15 -10 -15 -5 0 -10 7 -10 15
0 8 5 15 10 15 6 0 10 -7 10 -15z m2467 -97 c-8 -155 -39 -302 -105 -503 -96
-295 -249 -558 -440 -762 -52 -56 -68 -64 -74 -36 -10 45 13 101 85 207 108
161 126 191 153 264 27 70 33 157 15 205 -18 45 -13 57 27 73 97 41 152 144
208 393 40 179 81 271 121 271 14 0 15 -14 10 -112z m-2780 -68 c46 -91 83
-170 83 -177 0 -22 -41 -25 -202 -18 -120 6 -161 11 -165 21 -3 7 25 71 63
141 86 164 112 205 127 201 7 -2 49 -78 94 -168z m1518 -13 c50 -97 76 -159
72 -170 -6 -15 -27 -17 -187 -17 -151 0 -180 2 -180 15 0 15 137 268 172 318
14 19 23 25 32 18 6 -5 47 -79 91 -164z m-1269 48 c8 -19 -88 -199 -108 -203
-10 -2 -28 26 -56 87 -42 89 -48 112 -35 124 3 4 48 7 100 7 73 0 95 -3 99
-15z m210 -37 c83 -87 136 -157 132 -175 -4 -22 -76 -30 -108 -13 -24 13 -124
206 -116 226 10 27 42 14 92 -38z m381 35 c4 -12 -153 -193 -174 -200 -6 -2
-42 31 -78 74 -83 97 -99 119 -90 133 10 16 337 9 342 -7z m136 1 c6 -6 -50
-116 -100 -196 -22 -36 -26 -38 -72 -38 -57 0 -82 19 -60 48 29 38 133 158
152 175 19 17 67 23 80 11z m307 -6 c0 -25 -94 -179 -108 -176 -16 3 -113 168
-106 180 9 13 214 10 214 -4z m-908 -107 c61 -118 59 -121 -67 -121 -121 0
-125 5 -78 96 46 89 72 126 86 121 6 -2 33 -45 59 -96z m710 -6 c68 -113 67
-115 -41 -115 -96 0 -121 5 -121 24 0 7 18 49 40 95 30 61 44 82 57 79 9 -2
38 -39 65 -83z m1785 -157 c30 -29 67 -73 81 -98 26 -43 27 -51 30 -226 l4
-181 -29 -18 c-15 -10 -75 -57 -133 -104 -58 -48 -118 -92 -133 -99 -30 -13
-125 -15 -167 -3 -14 4 -26 14 -28 22 -1 9 33 85 77 170 82 159 156 349 186
479 20 84 31 110 46 110 6 0 35 -24 66 -52z m-4346 -22 c36 -139 100 -302 181
-464 86 -172 90 -184 74 -200 -12 -12 -32 -17 -74 -16 -81 2 -149 39 -252 138
-47 45 -98 91 -115 103 l-29 21 12 59 c7 33 12 108 12 167 0 118 7 141 62 193
66 63 112 63 129 -1z m1057 38 c14 -4 22 -14 22 -27 0 -11 -36 -87 -80 -169
-44 -81 -80 -157 -80 -167 0 -28 25 -31 238 -31 215 0 223 -3 188 -64 -10 -17
-72 -128 -138 -246 -66 -118 -128 -224 -139 -235 -19 -19 -19 -19 -55 0 -88
47 -296 269 -399 425 -112 170 -247 465 -231 506 4 12 57 14 328 14 178 0 333
-3 346 -6z m515 -17 c3 -8 -27 -72 -66 -144 -94 -169 -92 -167 -108 -161 -22
8 -231 296 -224 308 4 6 80 10 200 10 151 0 194 -3 198 -13z m373 -28 c14 -23
52 -95 85 -161 46 -95 57 -124 48 -135 -9 -10 -40 -13 -137 -11 l-126 3 -27
46 c-62 107 -141 271 -135 284 4 12 30 15 136 15 l130 0 26 -41z m338 35 c25
-10 20 -29 -45 -160 -63 -127 -79 -150 -103 -141 -19 7 -158 277 -152 293 4
11 37 14 145 14 77 0 146 -3 155 -6z m300 0 c9 -3 16 -13 16 -21 0 -15 -141
-283 -162 -310 -7 -9 -44 -13 -120 -13 -118 0 -133 7 -109 53 84 164 151 274
172 284 25 13 175 18 203 7z m443 -4 c29 0 43 -4 43 -13 0 -25 -190 -268 -207
-265 -14 3 -163 250 -163 270 0 11 69 16 179 12 57 -2 124 -4 148 -4z m823
-15 c18 -21 -22 -132 -111 -310 -90 -181 -176 -301 -324 -453 -119 -123 -176
-169 -194 -157 -10 5 -93 150 -230 402 -40 73 -70 137 -66 143 4 6 75 10 194
10 228 0 226 -1 184 92 -15 35 -52 108 -81 162 -29 55 -51 105 -48 113 4 10
69 13 334 13 281 0 331 -2 342 -15z m-1123 -132 c83 -147 95 -172 88 -183 -4
-6 -70 -10 -156 -10 -121 0 -151 3 -155 14 -7 19 138 286 155 286 4 0 35 -48
68 -107z m426 70 c57 -92 128 -236 123 -249 -4 -11 -40 -14 -191 -14 -161 0
-185 2 -185 16 0 23 203 284 221 284 5 0 19 -17 32 -37z m-1902 -108 c59 -79
98 -139 93 -144 -9 -9 -179 -16 -296 -13 -54 2 -68 5 -68 17 0 36 137 275 157
275 7 0 58 -61 114 -135z m440 2 c40 -78 60 -129 56 -140 -6 -15 -24 -17 -142
-17 -119 0 -135 2 -135 17 0 25 131 263 145 263 7 0 41 -55 76 -123z m-1243
-97 c124 -233 206 -345 381 -520 175 -174 247 -227 454 -332 88 -45 97 -65 45
-99 -28 -17 -45 -20 -108 -16 -85 4 -137 27 -282 121 -87 56 -213 120 -261
132 -30 7 -47 36 -47 80 0 32 -46 122 -120 236 -97 146 -152 265 -152 325 1
66 25 126 49 121 10 -2 28 -23 41 -48z m3397 -40 c23 -44 19 -135 -9 -202 -13
-32 -59 -109 -102 -173 -111 -162 -127 -192 -139 -259 l-11 -60 -67 -12 c-37
-7 -87 -25 -110 -39 -310 -194 -370 -222 -455 -212 -46 5 -97 35 -97 57 0 7
50 38 110 69 228 117 435 284 605 488 65 79 102 135 222 343 22 38 33 38 53 0z
m-2053 -68 c4 -4 69 -127 143 -272 103 -202 132 -266 124 -277 -8 -9 -37 -13
-95 -13 l-83 0 -50 63 c-106 132 -354 472 -355 486 -1 13 18 17 104 22 118 7
199 4 212 -9z m598 -12 c0 -17 -225 -443 -252 -477 -30 -37 -46 -15 -168 227
-66 131 -120 246 -120 255 0 13 33 15 270 15 263 0 270 0 270 -20z m390 3 c0
-9 -91 -137 -202 -285 l-202 -268 -55 0 c-31 0 -72 -3 -91 -5 -51 -8 -68 6
-53 45 17 45 242 459 270 498 l24 32 155 0 c137 0 154 -2 154 -17z m161 -130
c108 -192 209 -388 209 -406 0 -16 -30 -17 -350 -17 -327 0 -350 1 -350 18 0
9 30 55 66 102 37 47 125 163 196 258 72 94 136 172 143 172 8 0 46 -57 86
-127z m-1492 89 c5 -10 86 -120 180 -246 94 -125 171 -236 171 -246 0 -19 -9
-20 -330 -20 -279 0 -331 2 -336 14 -3 8 34 86 82 173 48 87 105 192 127 233
59 111 84 133 106 92z m-1560 -136 c106 -105 166 -139 273 -158 35 -6 65 -13
67 -14 2 -2 -7 -19 -19 -38 -15 -25 -23 -58 -27 -108 -5 -68 -2 -82 41 -202
88 -247 57 -248 -134 -6 -119 151 -211 293 -291 453 -54 109 -67 142 -58 153
24 29 53 13 148 -80z m4596 4 c16 -26 -153 -328 -272 -487 -75 -100 -208 -253
-236 -272 -51 -33 -49 37 5 182 52 139 58 207 29 294 -12 34 -21 65 -21 67 0
3 38 5 85 5 101 -1 127 11 250 120 71 62 126 100 147 101 4 0 10 -5 13 -10z
m-4099 -242 c74 -94 297 -316 397 -397 98 -78 99 -92 7 -139 -57 -30 -72 -33
-120 -29 -31 3 -99 23 -157 46 -61 25 -117 41 -142 41 -34 0 -43 4 -50 23 -93
258 -113 350 -91 427 11 40 61 100 84 100 8 0 41 -33 72 -72z m3571 -26 c12
-24 25 -69 29 -99 6 -49 2 -70 -40 -192 -25 -76 -46 -149 -46 -163 0 -31 -15
-44 -60 -51 -20 -3 -80 -24 -135 -48 -132 -56 -193 -62 -264 -24 -60 33 -96
69 -88 88 3 8 49 47 102 87 115 87 331 299 395 388 54 75 74 78 107 14z
m-2132 -150 c37 -7 47 -17 142 -142 56 -74 102 -143 102 -152 1 -27 -52 -31
-174 -13 -173 26 -377 82 -519 144 -83 36 -236 131 -236 146 0 9 14 15 43 17
81 7 602 6 642 0z m473 2 c12 -4 22 -12 22 -19 0 -13 -165 -235 -183 -247 -21
-13 -31 -3 -152 162 -30 41 -55 80 -55 87 0 6 12 14 28 16 44 7 315 7 340 1z
m841 -10 c12 -11 -45 -50 -167 -112 -204 -104 -364 -155 -587 -187 -137 -20
-215 -20 -215 0 0 9 50 80 111 160 l111 144 121 3 c145 4 620 -2 626 -8z
m-2386 -55 c40 -17 122 -64 183 -105 157 -104 191 -117 294 -118 47 0 99 3
116 8 30 8 33 6 59 -38 58 -99 152 -151 345 -191 234 -48 349 -96 324 -136 -8
-13 -72 -11 -214 6 -413 51 -835 240 -1147 514 -71 61 -78 80 -35 90 2 1 36
-13 75 -30z m2801 -15 c29 -11 16 -33 -56 -94 -222 -187 -532 -342 -842 -421
-165 -42 -446 -73 -460 -50 -3 4 3 16 14 26 23 21 175 75 213 75 47 0 243 69
294 103 33 22 55 48 74 85 14 29 28 54 31 57 3 3 26 -4 52 -15 26 -11 65 -20
86 -20 53 0 156 34 211 68 96 61 266 156 309 173 52 21 53 21 74 13z m-2025
-175 c153 -58 408 -99 614 -99 191 0 292 13 500 66 53 14 102 22 107 19 13 -8
3 -50 -23 -97 -35 -64 -113 -103 -288 -143 -105 -24 -196 -54 -253 -82 l-48
-25 -42 30 c-59 42 -268 104 -426 126 -70 10 -191 91 -218 146 -15 32 -18 48
-11 62 12 23 22 23 88 -3z m-1012 -120 c79 -34 103 -39 166 -39 41 0 93 7 116
15 l41 14 0 -55 c0 -84 49 -170 135 -234 50 -38 125 -140 125 -171 0 -11 -7
-22 -14 -25 -40 -15 -420 212 -610 363 -157 126 -188 168 -128 175 43 5 71 -2
169 -43z m498 -5 c194 -111 321 -166 510 -220 66 -19 126 -41 134 -49 21 -21
-14 -81 -79 -133 l-53 -44 -131 4 c-72 1 -156 -1 -187 -5 l-56 -8 -46 73 c-29
47 -66 88 -100 115 -30 22 -70 63 -88 90 -28 40 -34 56 -33 98 2 50 26 125 41
125 5 0 44 -21 88 -46z m2285 -23 c5 -11 10 -52 10 -91 0 -90 -18 -127 -113
-228 -40 -42 -85 -94 -100 -114 l-27 -37 -43 15 c-23 8 -98 20 -166 25 -137
10 -164 21 -221 86 -65 74 -63 105 10 117 93 15 331 102 465 172 77 39 148 72
157 73 10 0 22 -8 28 -18z m596 -2 c25 -40 -323 -291 -589 -425 -154 -77 -187
-87 -187 -56 0 26 24 57 110 147 95 98 130 163 130 240 0 31 4 55 10 55 6 0
33 -11 60 -25 79 -40 144 -32 310 39 85 36 143 45 156 25z m-1997 -269 c138
-14 372 -13 499 2 88 10 105 10 113 -3 20 -31 -27 -155 -76 -197 -17 -16 -76
-52 -131 -82 -54 -29 -114 -64 -132 -78 l-33 -25 -27 22 c-15 12 -78 46 -139
76 -168 82 -232 151 -233 252 0 42 11 55 40 47 8 -2 62 -8 119 -14z m789 -169
c12 -7 72 -16 132 -21 157 -13 231 -37 218 -71 -14 -36 -369 -125 -614 -154
-168 -20 -233 -20 -240 0 -10 25 14 44 130 102 168 84 193 109 240 237 6 17
12 14 59 -31 29 -28 62 -56 75 -62z m-969 34 c34 -65 76 -97 209 -164 124 -63
167 -96 152 -121 -7 -12 -28 -12 -147 -1 -292 27 -763 146 -763 194 0 8 10 22
21 33 19 17 33 18 118 14 210 -10 252 -3 322 56 22 19 46 34 52 34 7 0 23 -20
36 -45z"/>
</g>
</svg>
